# xmcd CD database file
#
# Track frame offsets:
#	150
#	18252
#	31279
#	57762
#	82453
#	97694
#	114883
#	145348
#	162902
#	178850
#	204855
#	220177
#	242685
#	260294
#	274668
#
# Disc length: 3977 seconds
#
# Revision: 3
# Processed by: cddbd v1.4PL0 Copyright (c) Steve Scherf et al.
# Submitted via: Feurio! 1.63.1ß - http://www.feurio.com
#
DISCID=c50f870f
DTITLE=Various Artist - Die DT64-Story Vol.3
DYEAR=1900
DGENRE=blues
TTITLE0=Amiga Blues Band - Walkin By Myself
TTITLE1=Stefan Diestelmann - Blues Vom "Blauen Club"
TTITLE2=Engerling - Narkose Blues
TTITLE3=Renft - Cäsars Blues
TTITLE4=Modern Soul Band - November Blues
TTITLE5=Mama Blues Project - Mama Blues
TTITLE6=Gitarreros - Red House Blues
TTITLE7=Hansi Biebl Band - Was Für Ein Tag
TTITLE8=Jürgen Kerth - Helmut
TTITLE9=Monokel - Kindertraum
TTITLE10=Zenit - Dr. Blues
TTITLE11=Jonathan Blues Band - Blues In Der Nacht
TTITLE12=Brot and Salz - Blues Vom Abschied
TTITLE13=Centrum - Blues Für Städte
TTITLE14=Amiga Blues Band - Little Red Rooster
EXTD=ID3G:  12
EXTT0=
EXTT1=
EXTT2=
EXTT3=
EXTT4=
EXTT5=
EXTT6=
EXTT7=
EXTT8=
EXTT9=
EXTT10=
EXTT11=
EXTT12=
EXTT13=
EXTT14=
PLAYORDER=
